<mxfile host="65bd71144e">
    <diagram id="5DfwSMmlrQ2DYcHCKKRp" name="ページ1">
        <mxGraphModel dx="1060" dy="804" grid="1" gridSize="10" guides="1" tooltips="1" connect="1" arrows="1" fold="1" page="1" pageScale="1" pageWidth="827" pageHeight="1169" math="0" shadow="0">
            <root>
                <mxCell id="0"/>
                <mxCell id="1" parent="0"/>
                <mxCell id="14" value="" style="shape=image;verticalLabelPosition=bottom;labelBackgroundColor=default;verticalAlign=top;aspect=fixed;imageAspect=0;image=data:image/png,iVBORw0KGgoAAAANSUhEUgAAAh0AAAE2CAYAAADF4yCPAAAKn2lDQ1BJQ0MgUHJvZmlsZQAASImVlgdUk8kWx+f70kNCCyCdUEOR3gJICT106WAjJIGEEkMggIidxRVcUVREsCzIUhVclSJrQUCxLYqKXRdEBJR1sWDD8j7gENx957133s2ZzO/c786de+fMnPMHgIxnCYUpsCwAqYIMUaiPOzU6JpaKGwMQgJEfDhBZ7HQhIyQkACA2N//d3t1GohG7aTqd69+//1eT43DT2QBAIQjHc9LZqQifQMZTtlCUAQCqFPHrZmUIp/kUwgoipECEr09z4iw/neb4Wf4wExMe6gEAmgQAnsRiiRIBICkjfmomOxHJQ6IjbCHg8AUI8xB2SU1dyUG4FmFDJEaI8HR+evx3eRL/ljNekpPFSpTwbC8zhvfkpwtTWKv+z+P435aaIp7bwwBMNyDyDZ2ekTO7m7zSX8KC+KDgOeZzZuJnmCf2jZhjdrpH7BxzWJ7+krUpQQFznMD3ZkryZDDD55ib7hU2x6KVoZK9EkQejDlmieb3FSdHSPw8LlOSP4cXHjXHmfzIoDlOTw7zn4/xkPhF4lBJ/VyBj/v8vt6S3lPTv+uXz5SszeCF+0p6Z83XzxUw5nOmR0tq43A9veZjIiTxwgx3yV7ClBBJPDfFR+JPzwyTrM1ALuT82hDJGSax/ELmGHiBSGAFbAAdWGRwszOmG/BYKVwl4ifyMqgM5GVxqUwB22wh1crCyhaA6Xc6ew3e3J15f5ASft7HQ+6vbRECHfO+hG0AtEUDIFM776NlAyCvAkDnebZYlDnrQ0//YQARyAAFoAI0gS4wBKZIbXbACbghdfqBYBAOYsBywAY8kApEIAvkgg0gHxSC7WA3KAMHwSFQC46AY6AVnALnwAVwBVwH/eABGADD4AWYAO/AFARBOIgMUSAVSAvSh0wgK4gOuUBeUAAUCsVAcVAiJIDEUC60CSqEiqEyqAKqg36FTkLnoEtQH3QPGoTGoNfQJxgFk2AFWAM2gM1hOsyA/eFweBmcCKfBOXAevA0uhSvhw3ALfA6+AvfDA/ALeBIFUFIoJZQ2yhRFR3mgglGxqASUCLUWVYAqQVWiGlHtqB7UTdQAahz1EY1FU9BUtCnaCe2LjkCz0Wnoteit6DJ0LboF3Y2+iR5ET6C/YsgYdYwJxhHDxERjEjFZmHxMCaYa04w5j+nHDGPeYbFYJSwNa4/1xcZgk7CrsVux+7FN2A5sH3YIO4nD4VRwJjhnXDCOhcvA5eP24g7jzuJu4IZxH/BSeC28Fd4bH4sX4DfiS/D1+DP4G/gR/BRBlqBPcCQEEziEVYQiQhWhnXCNMEyYIsoRaURnYjgxibiBWEpsJJ4nPiS+kZKS0pFykFosxZdaL1UqdVTqotSg1EeSPMmY5EFaShKTtpFqSB2ke6Q3ZDLZgOxGjiVnkLeR68hd5MfkD9IUaTNppjRHep10uXSL9A3plzIEGX0ZhsxymRyZEpnjMtdkxmUJsgayHrIs2bWy5bInZe/ITspR5CzlguVS5bbK1ctdkhuVx8kbyHvJc+Tz5A/Jd8kPUVAUXYoHhU3ZRKminKcMK2AVaApMhSSFQoUjCr0KE4ryijaKkYrZiuWKpxUHlFBKBkpMpRSlIqVjSreVPi3QWMBYwF2wZUHjghsL3iurKbspc5ULlJuU+5U/qVBVvFSSVXaotKo8UkWrGqsuVs1SPaB6XnVcTUHNSY2tVqB2TO2+OqxurB6qvlr9kPpV9UkNTQ0fDaHGXo0ujXFNJU03zSTNXZpnNMe0KFouWnytXVpntZ5TFakMagq1lNpNndBW1/bVFmtXaPdqT+nQdCJ0Nuo06TzSJerSdRN0d+l26k7oaekF6uXqNejd1yfo0/V5+nv0e/TfG9AMogw2G7QajNKUaUxaDq2B9tCQbOhqmGZYaXjLCGtEN0o22m903Rg2tjXmGZcbXzOBTexM+Cb7TfoWYhY6LBQsrFx4x5RkyjDNNG0wHTRTMgsw22jWavbSXM881nyHeY/5VwtbixSLKosHlvKWfpYbLdstX1sZW7Gtyq1uWZOtva3XWbdZv7IxseHaHLC5a0uxDbTdbNtp+8XO3k5k12g3Zq9nH2e/z/4OXYEeQt9Kv+iAcXB3WOdwyuGjo51jhuMxx7+cTJ2SneqdRhfRFnEXVS0actZxZjlXOA+4UF3iXH52GXDVdmW5Vro+cdN147hVu40wjBhJjMOMl+4W7iL3Zvf3Ho4eazw6PFGePp4Fnr1e8l4RXmVej711vBO9G7wnfGx9Vvt0+GJ8/X13+N5hajDZzDrmhJ+93xq/bn+Sf5h/mf+TAOMAUUB7IBzoF7gz8GGQfpAgqDUYBDODdwY/CqGFpIX8thi7OGRx+eJnoZahuaE9YZSwFWH1Ye/C3cOLwh9EGEaIIzojZSKXRtZFvo/yjCqOGog2j14TfSVGNYYf0xaLi42MrY6dXOK1ZPeS4aW2S/OX3l5GW5a97NJy1eUpy0+vkFnBWnE8DhMXFVcf95kVzKpkTcYz4/fFT7A92HvYLzhunF2cMa4zt5g7kuCcUJwwmuicuDNxjOfKK+GN8z34ZfxXSb5JB5PeJwcn1yR/S4lKaUrFp8alnhTIC5IF3Ss1V2av7BOaCPOFA2mOabvTJkT+oup0KH1ZeluGAiKIrooNxT+IBzNdMsszP2RFZh3PlssWZF9dZbxqy6qRHO+cX1ajV7NXd+Zq527IHVzDWFOxFlobv7Zzne66vHXD633W124gbkje8PtGi43FG99uitrUnqeRtz5v6AefHxrypfNF+Xc2O20++CP6R/6PvVust+zd8rWAU3C50KKwpPDzVvbWyz9Z/lT607dtCdt6i+yKDmzHbhdsv73DdUdtsVxxTvHQzsCdLbuouwp2vd29YvelEpuSg3uIe8R7BkoDStv26u3dvvdzGa+sv9y9vGmf+r4t+97v5+y/ccDtQONBjYOFBz/9zP/5boVPRUulQWXJIeyhzEPPqiKren6h/1JXrVpdWP2lRlAzUBta211nX1dXr15f1AA3iBvGDi89fP2I55G2RtPGiialpsKj4Kj46PNf4369fcz/WOdx+vHGE/on9jVTmgtaoJZVLROtvNaBtpi2vpN+JzvbndqbfzP7reaU9qny04qni84Qz+Sd+XY25+xkh7Bj/FziuaHOFZ0PuqK7bnUv7u4973/+4gXvC109jJ6zF50vnrrkeOnkZfrl1it2V1qu2l5t/t329+Zeu96Wa/bX2q47XG/vW9R35obrjXM3PW9euMW8daU/qL/vdsTtu3eW3hm4y7k7ei/l3qv7mfenHqx/iHlY8Ej2Uclj9ceVfxj90TRgN3B60HPw6pOwJw+G2EMvnqY//Tyc94z8rGREa6Ru1Gr01Jj32PXnS54PvxC+mBrP/1Puz30vDV+e+Mvtr6sT0RPDr0Svvr3e+kblTc1bm7edkyGTj9+lvpt6X/BB5UPtR/rHnk9Rn0amsj7jPpd+MfrS/tX/68Nvqd++CVki1owUQCEDTkgA4HUNAOQYACiIriAumdXRMwbNav8ZAv+JZ7X2jNkBULMegEhkTEuiA26IjEVYFhkhCIe7AdjaWjLmNO+MPp82xS4ArGjofvfcx1UV68E/bFa7f1f3P2cgyfq3+V9VwQN0W9gxgwAAAFZlWElmTU0AKgAAAAgAAYdpAAQAAAABAAAAGgAAAAAAA5KGAAcAAAASAAAARKACAAQAAAABAAACHaADAAQAAAABAAABNgAAAABBU0NJSQAAAFNjcmVlbnNob3Ql0gEgAAAB1mlUWHRYTUw6Y29tLmFkb2JlLnhtcAAAAAAAPHg6eG1wbWV0YSB4bWxuczp4PSJhZG9iZTpuczptZXRhLyIgeDp4bXB0az0iWE1QIENvcmUgNi4wLjAiPgogICA8cmRmOlJERiB4bWxuczpyZGY9Imh0dHA6Ly93d3cudzMub3JnLzE5OTkvMDIvMjItcmRmLXN5bnRheC1ucyMiPgogICAgICA8cmRmOkRlc2NyaXB0aW9uIHJkZjphYm91dD0iIgogICAgICAgICAgICB4bWxuczpleGlmPSJodHRwOi8vbnMuYWRvYmUuY29tL2V4aWYvMS4wLyI+CiAgICAgICAgIDxleGlmOlBpeGVsWURpbWVuc2lvbj4zMTA8L2V4aWY6UGl4ZWxZRGltZW5zaW9uPgogICAgICAgICA8ZXhpZjpQaXhlbFhEaW1lbnNpb24+NTQxPC9leGlmOlBpeGVsWERpbWVuc2lvbj4KICAgICAgICAgPGV4aWY6VXNlckNvbW1lbnQ+U2NyZWVuc2hvdDwvZXhpZjpVc2VyQ29tbWVudD4KICAgICAgPC9yZGY6RGVzY3JpcHRpb24+CiAgIDwvcmRmOlJERj4KPC94OnhtcG1ldGE+CnOctl0AAEAASURBVHgB7Z15rHVXWcb393GjIBqVGIOQtAwa5Q+sJpBqo8VW4hjHNEUof0iiDCpQao0YHIoaoglNxGqU2ChVYqipqFETSTSlwUqVSIzBSgCtQAQHMJGhFJUe92/3e+733vWtPZ49nvO8ybpreqf1rL3Xes/a+5x7bldSYTICRsAIGAEjYASMwMQInJ9Yv9UbASNgBIyAETACRqBCwEGHLwQjYASMgBEwAkZgFgQcdMwCs40YASNgBIyAETACDjp8DRgBI2AEjIARMAKzIOCgYxaYbcQIGAEjYASMgBFw0OFrwAgYASNgBIyAEZgFAQcds8BsI0bACBgBI2AEjICDDl8DRsAIGAEjYASMwCwIOOiYBWYbMQJGwAgYASNgBBx0+BowAkbACBgBI2AEZkHAQccsMNuIETACRsAIGAEjcGIIjMDWEHjrW99auaw8+v8N3/ANBclkBIyAETAC60PgnP/h2/omxR6dRUDBxatf/epC5bMcl9Z+5md+pmq85ZZbLu10ixEwAkbACCyCgIOORWC30a4IEDQQbIg4xVBAQZtONRSMkN9zzz1nghP4HXwIQedGwAgYgeUQcNCxHPa23IBADDYUaCjAaBA70xV10HH33XefBilnGF0xAkbACBiBWRDwi6SzwGwjfRBQsECQQaAwNFhAT/n48PRk5JprriloMxkBI2AEjMAyCPikYxncbbUGAQIDHpEo4Khh692MTnRDftzSGz4LGAEjYARGQcAnHaPAaCVjIMApBMEBQQGnG2MSQQynHuS8I+ITjzHRtS4jYASMQDcEfNLRDSdzdUDgYx/7WHHHHXcUz3jGM4qv/dqv7SBxkYUggGBgjlMInaYMfWxz0WuXjIARMAJGoA8CPunog5Z5GxH46Ec/WrzsZS8r/vRP/7SRL+2cM+DANoENpOCjqviPETACRsAITI6Ag47JIbaBNgT0ldi5HnnE90Vku81H9xsBI2AEjMD+CDjo2B9Da9gDAQUaOn3YQ1UvUQIPEu+QkExGwAgYASMwPQIOOqbH2BYaENBJg4KPBtbRuxToyIfRDVihETACRsAInEHAQccZOFyZEwEFGtr857SNLZ92zI247RkBI3DsCDjoOPYrYAXjV/CxhCtLBTxLjNU2jYARMAJLI+CgY+kZOGL7PNbgtGFJkn0/YllyFmzbCBiBY0HAQcexzPTKxqmXN5/1rGct7hmBh/xZ3Bk7YASMgBE4YAQcdBzw5HpoRsAIGAEjYATWhMDJmpyxL4eBAL9M+oEPfKBxMH/0R39U9evxRiPzxJ2ctvikY2KQrd4IGAEjUCLgoMOXwegI3HbbbQVpa0TgsYYgaGu42V8jYASMQFcEHHR0Rcp8pwikpwLU4zdQ+L8rV1999Sl/rvCXf/mXxb333pvrcpsRMAJGwAgcKAIOOg50YocOiwAi/SZHGmSkutOvnV577bXFz//8z6dsZ+ro1L+aP9OxYMWnHAuCb9NGwAgcBQIOOo5imrsPkmBAQYY2YeX6pkkalMRTju6WHuHElvT3lR2L/5577hlLlfUYASNgBIxAAwIOOhrAOcYuAoi6IIIAIQ040lOOvpitYcNXkNXXd/MbASNgBIxAPwT8ldl+eB0tN4GI/hU8gYZOJ+oClDagkJeONt45+vcNnubw0TaMgBEwAltHwEHH1mdwYv85BSDY4ISDIOHuu++uctrH2KjRQ1qKFDStKQBaCgvbNQJGwAhMjYCDjqkR3rD+9HRDAYcesWjDHjpEBS1LBh0ai4OOobNoOSNgBIxAdwQcdHTH6mg4CQLS0w0FGPSRFDDsAwobPYmNH51zk8Y0xljm9t32jIARMAJbRODcrqQtOm6fp0GAjVif/tmMtTHLmt7ryF02DzzwQPGUpzyleNWrXtX6lVnpI9hAJ8EHJylz0rlz5ypzubHM6YdtGQEjYASOBYGDOumY49PyHDaWuPi0+RNwKABIAw54SGOeDGCLhN7U3pQ4yNaYY5nSX+s2AkbACBwCAqv5yiybAF+f7PppV5uGciaDjQtiE5uC0E+K+mOdchcSX/RdcuqLNtQ3VY4fTacbsiuenN/wnD9/vnjc4x5XPOYxj5FIp5w5j49zph67xps7yenksJmMgBEwAkZgEAKrebzCUXcMONjg2BSaNiA2D/rFQ50EsXmrvWpI/kiW5hyfNv8opjaCI31Clp2cDmTpJ8mvqK+uLF7ldXz7tqNfgYSwbhoHgcFUGzUYoR/iOqjzY6wxoz9eb/vqtbwRMAJGwAi0I7CKoEOba12uYbAxdSV42VhIKUU78LXxoiPyaPPN6cYW+mOfAij6VI79tKOfFKnPyU+U61LGxxhwCJMmWXi68DXpaOpj/Ao8pghu8F1j9nscTTPhPiNgBIzARAiUi++iVH7a3JUb8K7cZE79iOXTxlBAJqbQdVqkPxL1qBebkeiL/epTG7l0SpY29YufPLa12Y1yqWzaN0Yd38pLqUrRzzF0j6FjKv+kV3M3hq/WYQSMgBEwAv0QOD9RLNNJrT7dlxtzUW4G1adc2po+TUtGBvTJlbrkUh76ol7K5SZE8ykhG3XREWWo42OkaC+2U0ZWKdZTvlhv0scJAPr2oThGxi97++gcWxafdD0wH4x7Hz+R5dEduhgzuk1GwAgYASOwDAKLBR3aQLWhsKHrH4qNDYVsSS8bUBpA0Edb5BWPfISHcvQz9tGfoy7/XwS78gu70kve9jgnZzO2oSNuvGVceqo/8q2lzPgJDggShEuf4AMZ+EnCFH3gYDICRsAIGIEFEeh3MDIdd7nB7Ejl5nCaVI9W1a+2coNSsZKnAg+yoihDOcqIh7ychlg9owd9qc4zzKGS8sV6k218E8EX5dTeN0cH4yKNoa+v/TH44xg0FvARRiqTq59c/WP4IB1xjtTm3AgYASNgBLohcFIuzosSn0pJULlJVKmqXPhDH+2RxB/bmsrI8ymXXMfsKT86y83tTDP8JGQ5reCEAz4SdfpyBD+kPPKVm1bVl/6hHT50Q9iSfNXQ8w+yjBViXPvo6ml6dHZ8V0I52Asn5bSDH0nzSHls4vQEko0t4zo2NtZnBIyAEWhD4KSNYap+NgsSG0PcULrYQ4YEaWOtKg1/2Kiww2YuWbHTDimvKhf+aFMjKFCZrrrgIcpiB/9yeiMfZXjhIydFWylvWx09wmXrAUccaxccI/8UZQUbwpec+dJ1RdlkBIyAETACeQRO8s3Tt7I4z7lAK2iINtnEtJEpjyPXxq8+6jrxiHx1Zfjjpt825tgvm3W6c+3IaDOMdnO8bhuGgOaFXGUwZ64j9mhX/zBLljICRsAIHB4Cq/idDmDVAh2DAhby2EdZbfBR5ri7fJJU8ekPbfs+npAu2SNXUCBfCUAgNnj6IPhIkPgoq12fjKMM/ZDklEs/fW0nK7fffnvxgz/4g7CeCXSqBv+ZHAHNL3Om+cMo14VPQSaH3waMgBHYCAKrCTpYqLVxN2GX8qX1Jtk+fenGUSeb2k/rdXJjt1911VXFN33TN50JdMa2YX3dEVDAqdMPSRJsQupXu3MjYASMwDEgsJqg4xjAnnKMnHT8wA/8wJQmsroJskgpEUB2CSK1+Xblj3YkG9uG6InyU5SFkU9BpkDXOo2AEdgSAg46tjRbK/WVTZVHWvE9kj6PuBQ8KO8zzNQOOjhd4HFUl6Cnj62xeDVOn4KMhaj1GAEjsBUETrbiqP1cPwJxkycAISCgLbZPPQo2dOxhO33XZ2rbXfUr6CCPpyAKQsgZg98F6Yqo+YyAEdgKAue34qj93BYCbKYQm2cfklwfmZRXNlNdaT3Kxb5YjjxTlPGV4IOTGYIkgjUSPhB8EDzxa7LwkExGwAgYgS0j4McrW569lfjOBsnmGL9hQz0+bsFV2iA+wUPaRMl534F2fWMn1SWZKEcZnfRJF20QGzUbOnrwjwTBp0SddjZ36c/Zh28JwjeS3wVZAn3bNAJGYBIEuv1w6fq5ys1lR1oblRvvjnTIBO7lxXn6s+PlZn/JXKQ4RB76qIsibyzTH+VUhycl+KQT3+K1EetRX+pHqnPpurDA/5jUvrR/tm8EjIARaENgVY9X+NTKJ7suBB+fWMVfbh6nP87URX4ITx//pB8f9elZbXW5xqRP4tgjRXrf+95XPOc5zyn++q//OjavolxuftWckKd+6z2F6KjmLrapLMxycrS1Ebo5vZANrg9RLKufvtgu3jXlui7Km7o6wQFnCDxIfgyzptmyL0bACOQQWFXQwQZAYnFl0yKvIzYINqa5N4qu/qV+a2ySz42NsZDUx6ZZfkJPVRW/93u/V3zN13zNaoMPzQljrSM9zlB/rEuevlimDl/kpW0IyTfwZcMGc9pyeA/RP7UMuOAzAQiJAIQUAxAHIVPPgvUbASPQF4GTvgJT8bOAsmiSQ8qrygr+4E/ckAiK0g3x1ltvLT7+8Y+3eoucNr2UWZsJ7W0YEHyQrr/++uKmm24qrrzyylTdYnXGwQYIUSZFImBU8KBTDfUjpz619cnBLV5L2AZv+UCZfghbcV772FkTr64VcpUVgGicGrP61+S/fTECRuA4EFjFi6RsAqS4GPIpjU9wTcTGHzeMtF4nm7OH7Wg/yqq9Lo+86NbmRjv1PhubbEiHctng8cqXfdmXqXomXyL40PjI46bGOBi3Nn/6SZACDo2VeUuDDPVFuUq4/KM+cmyAEfIKXiiLB5moI2dbepXHa0ptW86FBViJhBk5yWQEjIARmAWBcmNflMoFflduTGd8oJ62nWG4UCkXyzPNaf1MZ1mJeiljGyKvk418FXP5h7YuhN4m3akOeMtJr2QoQ9iK9t773vdWPPDVpTL42N13332V/Nr+aFxL+JWzHfGln3qObwl/p7Cp8abXjtqnsGmdRsAIGAEhwGnCYsTini7wfRa/VLYucIgDRH9KuTZ40J/a6OOf/KnTH/3ADvypvdSPLkHHy1/+8t373//+qN7lDALCPHZpzmLboZYZP9cmY45BCHXac9fioWLhcRkBIzAPAqt4vFIueBVxDN7nUYTkyDlCLhfLKsX2tnIfOR3T67i6Tbf4OdIvF/BG9rbHSXp01PR4pQw2qnc7LrvsskZb7ryIgOaIa4dy17m9qOFwShp7fAzD6MoApBqk+g9nxB6JETACcyOwmqCDBX9owAFo2pT7AKgNp8tiKh7lfewg0yaHL9r40s1PsuS5oMPBRp/ZMG8XBHRvEDBTFnGN8s4MOclkBIyAEeiDwEkf5ql4tcC1nQbk7A+VjRt5Tm9s68Mb5fqUtYAzHuwRRPEJU+05XQQbr3jFK4rLL7881+02IzAYAa67eO3pHuCDAdeoTkN8CjIYYgsagaNEYPGTDhazdIHrOhMKOLQgdpXrw4eNuPj2kR3CG8eib2PE4IOTjl/5lV/xY5Qh4FpmFAR03/kUZBQ4rcQIHBUCiwcdQ9GeOxgY6uehy+XmgTbR1AFbzr5sO58HAQXKOv2QVZ+CCAnnRsAICIHNBh0awBrz8hsmBQniNzXqfldjSt/ZjNkE4ilJm726DbyuHX1sOHzi1e9spEFGWs/5MOR9HOlBNv1dDvU5nx8BrhWST0Eewf7ee+8t+NHAN7/5zfNPhi0agRUi4KBjxElhA9anPTbbPhv+iG6cUdW0oafBRBpASBEbyJRjafJRPtTlbd/6qZNLx17H5/b9EOCagnRfVJXyzzGcgtx5553F8573vOLhhx8u3vjGNxY33HCDhu/cCBwtAg46Rpr6GHCwoGqxHUn96Grwj8CI1EQEBLmAg007JbVJpzaapheEU5lUZ6yngYIwVh55KcMvH3QSk57KyNdU1vXxEdA8aU5k4RADEE43br755uIJT3hC8bu/+7unJ4Eas3MjcLQIzPNzIIdrpVwwT39YifIaCD/KzbTWFfrLQKC2Xx3oaBoTOlJdbTLSrVz6u/iDDPxK5U0rNZPndf7R3tbXxDO54ys2EOeRuVRS+5iu183RmDbQhZ3rrruuGsszn/nMXfni99gmrM8IbBoBn3TsEW7yyU2f2sqFstAnuT1UjiZad4KAj2VgUKUmY/ANeazS91FJPL3o6ht+wwv25SLfOpamceb66k5ImGOwS0lY6TQl7Vcd2Zy8+o85B0NI91NVKf+AOaT+qtLzD/PJdQn2XC9jka4T8iYaYwxN+t1nBDaFwKZDpoWcLxeRM5/KFnKjt1n8JrVR5OOTWxcZdMIHf1fK6e2iAx7JlhtJL5tdfUv5ZC9td30aBMCbuS0X09NEnfY+15i8Qw5d6NiHsJ3zS76V73BUdj7/8z9/99KXvvQSXvwwGYFjRmC+8+kDQVmLFwvYVhYQ/Oy62MKbjouFlvG2UVcb0iM76KdMTmqzJTnpQSYl2qJOyiRtDrGcyubq8JuWQQDsSVwXMam9q1fS0fc6lX7J4wM6ctcdvOVLo5WfV1xxxe4jH/lIJS5f5T91kxE4RgTad5JjRCUz5rjgbGHBwEdtvF38haeJj766RRa4mmQjnPCxYCvl9NJGSknjSdvr6tLd5HcqKxvK5Ys2GvI++lL9ru+HgOaF60cbuOZG891kAR74ybsSNmWPvMv833bbbZUd+D/zmc+cmsIuST530XUq7IIROAAEHHR0mEQtEn0Xqw6qJ2ORz+RTU9+Fsy8//iMzx1hka4iPU+Ns/ZciwDVB4t6MSe2XSuxO+eFpI64D6e3CH/X97M/+bCX7Pd/zPbG5KqNrqN5LlLnBCGwIAQcdDZPlhaEBnAtdc2zO2JjDTvtozbFmBLhGuGd1KqFNnTrt8RqiTj95HYkHvihbx59rv+mmm3a//du/neuqdMrHofqzit1oBFaMgL+9Ut71OeJteb1JXy4+e709n9PvNiNgBKZFQN940X0sa9zPkH41NXd/6xsv8JUBQVEGLhQnIX7gDpraziTOW6kR6ImAg44EMAcbCSCuGoEDQIAggqRAIx1SGnjwFVv45wgEsDPFV3rTMbpuBFaBwJynMGs/QiwXHj9nnfOCsC0jsBACPHIhlYvwaeL+h7QOqF41TvxHNvHJZAQOGYHJTzqI4CGi+UgcV67lH3X5dCPOjMtG4PAQ0PrDoxaVNUqtReQkHneUQcDsj1TnPF3R2J0bgbkROJnKIDe2Ag7dzPrFRh1x6ubXs9epfGnS64CjCR33GYHtIsD60iXIiCPUWsSaNTcR6MjnJezPPV7bO1IEpjjG0VFhCemu6ZFKV76pfcQPkxEwAoeDAOsO6w+p3MB33ONNa5FGDv+S6wG+tq2b8tW5EdgiAqN/ZZYbVjd6F0C0OHCzzUXycekFZq7x2o4ROEYEugQZERetC0sGHVoP+/oex+GyEVgzAqO/06Gvf5WDLvf0bsSRIo9iypt90ueofpTSbT7MZQSOEQGtD33WrilwYg0tP4SN+s/ppvDTOo3AEATODxGqk9HzUIKHPsQNRso9f+2jp4lXCwo8Uwc3TX64zwgYgXUiwPrTd+2aYiSshXwQMxmBQ0Rg1KBDACn4UL1LPtXNji98ctCCwqeYIf51GYN5jIARMAL7IqAX7h147Iuk5deIwKhBBxs7UfoQktyYNxrBBT5BPt0YMiuWMQLHgcCY685xIOZRGoFhCIwadAxz4awUX6fdl3y6sS+CljcCRmApBPQBbB/7BFE+0d0HQctOhcCov9Mxxs2io8WhA/bpxlDkLGcEjMAYa9hSKBJo6GRXJzeMZ8tjWgpL250OgVGDDtzUxd7X5aFysuNgQ0g4NwJGYCgCrENLb9J91kJ4c4FG+ZXbCoKlxzJ0Hix3uAiMGnRwSsFNQOp7sSMDDZHjppNN3t3oq6My7D9GwAgYgQ0gwFpH0i874zJrHsnr3wYm8NhdHPNHRPTDNuXF30tteaNUPyhGPoSQGyo7xJ5ljIARODwEyr2g+vXSpUfGWoYvKbG+srbSp0SddpMR2AoCo/84GBF43x/6GvKDYuVNZzICRsAIjIaA/uFauXiPpnOIorofB9PamurkhEPvwlEmmYzAWhE4P7Zjuuh55KGbuM4GN5ECjjK6r2NzuxEwAkZgcgS0cbMuLUWyLV+iH6yt5anGmaBC6ybrrdZc1lTWXt5zI0ln1OWyEVgKgdFPOjQQLnZuAkg3hiJwbgI9j6SNfvVJ3rkRMAJGYE4EWJfYrFmL2NyXIK2baXCR+qIPdKydyED4T4K0vlaVC38Yl4IZyiSTEZgbgcmCDgaim0DBRzq4eMOkfa4bASNgBKZGQJs0axTrETltbZv+VH7p5LfLIx4FKE3rqNZg/HUgMtWsWW8fBCYNOqIjXPzPfe5zi8/+7M8u3vCGNzjKjuC4bASMwGwIsBZBCjCqSvmHzZtP/0uddnQJIuSrcsngd9fTGQciQs/5EgjMFnQwuK/+6q8uPv3pTxf333//EmO1TSNgBI4YATbbNNBgs1awIWj06GLO0w58w27TqYX8S/MYeKRjSXnr6g5E6pBx+9gIOOgYG1HrMwJGYDUIdA00osMKAGjr8pgjyg4t67HK0EBHgQf2h+pIfXcgkiLi+hgIOOgYA0XrMAJGYDUIDAk0UucVePR5bJHq6FrXycqQU45oIwYeUwVLDkQi4i4PQWBw0PHggw8Wn/nMZ3rZ/Lqv+7rq8co73vGOXnLnz58vHvvYx/aSGcrMjUvaIo3p+5i6toilfd4WAmMEGumIuQd4HDNl4DFWwBF9Bwt8nosciMyF9GHYGRx0XH311cXb3va2WVB40pOeVDzwwAOz2GIR4HhSN24agHAz193Q8Db1TzkA+am8jy09S9a4pEN5H13mNQJzIcA92uUdjX384R7ABjTWYwt0Rd/3PeFA39qI8ZEgf2umgsF/LiAwOOh47WtfW7zvfe/rBeRdd91VPPzww8X111/fS+5xj3tc8ZrXvKZWRhf40E1SN0dqgE1YQUjal6sP8QOfh/odfeCZMIuXiBud7+TX6U7HTF1BB4usdImvTo/sOTcCcyDA9Th1oJGOg2tfgccYAcLY+lJ/11pn7rSeOBBZ6yxN79fgoGOIa1N9e0UvYeHT0EWBhYBNlxQ/+c8RdOA39nPETYpPTSRZ5bq5Vc/J6ubP9eXa2nzIybjNCIyBANfq3IFG6rfuqaHBRyrP/cRadez3lXABbwci6VV3mPWDCDqYGjZYLQjU+wQfXPgQOYsAejglUBld6iev28ylB7mu1CZDP/5wtJsj+qWDfnzrGijBK1/RQZkkfZQJ6KZ6KS03HrcZARDgGuS617VIG9fj0hs190xcZ/Ap/sonfkYSr8axhjFE/9ZYBivhtYZARKfIzP1cxPi5Vg6RDibo0OTowtDNroBB7eKry9MNW6ceugm4EOouhshTpz9tT2VyF5t8Vy4dqaz6lYuvLo9jjbpieyzX6XG7ERgDAa7BNQYaubHpHtM6k+NRm9aLpQMm+bPFnGtDa9TcgQhzzTwzf5r3MTHUdY9OjTHVzzWk4HYKH1J7U9ZPplS+hG5NCJMUJ7PtoomTTZmkxUK6yNU2xdiiD1E/Y2LzjyTe1J+0HscR5VWWnjY+8Ts3AmMiwHW3lUAjjlvrDLnuIfpVjvdhLEcdLndHAAxTHMFaeBOIKABUDr826px8V+uaa/Rip+7Uuas++PA7d91rjPIbXgVZGityUwVA2JucyqPz2eirvuqrdk972tNmsydD5QTtSiBPE3VSSrSVk37aXF5cp3z0UW8i+tt4cvLyRXkTT66PNmRJ8kF5HE8qG/vED09sj+VU3nUjMAQBrjWuq3hPUqfdZAT2QYBrSGtheo1xvdGm/r7XG3LSsY+P0iNd+NHVF2TjuKhvjXhePxstFXRogEwQKS52f/u3f1t1M+n06aLUhaCLgT6VpS/NJZO2U2/qk+42/XV6kYeUV5ULf3Jt6mes8gs+2addFMtqc24E+iLAtcW1FO+9eP311Wd+I9AVAa491jdSvP5U5jpUv9bAOt1RRxtvqiPeA7r2U56u9egHurZERxV0xInRpP3Gb/xG1awLSBOoC0Qy8ItHbbkcvpTaZOVLKtdUz/lSZ7tOj8ZKP/qkM7bHcp0etxuBHAJcT1w/WtzJqdNO6ktDZFIbuXsk5dmn3nav76N7KdkxcF/K9zq7jIm5IsXrU2WuU/Wn448ylLsQOqS7q0wXvdGX1M8u8kvwHNw7HeXEdiKe05He+c53VvzlRXaJXDmJl7R1adAzQHh5HldeGEVOv3TB39Qvvpjn+LEVbcNPWxfieaF04q/JCAxBoO5Zta4pXWN9deu67iPPe1Dx3pOOvrb78Kf3IHiQZFt51IlMfIZPH21af3IyUV5l6YEfm11IfHU2aE8xRybXVmdP7yCkMnX8c7Tji/zR2BmX8IjvW1CG4Nc8cV3Rrj7pyPlOn/iYU9nN8fZtk13066X/MfX39acT/5yRztKPV7qMtZywLFt5ke3KCybbl2vsw5uTH9KGjyk1+SF+eHLjpl88qV7XjYAQ0PVTLjinn+a4nmgnjUFRHzq7XpvRflquu7Zplw1yUo7Up1w+kkuH+nLyaoNfVGdL/cqjjNracnwi1ZF8jblkYtsQ23U2197OuIVBvL7Tch2uyIuX8lQU7UxlYyy9s35l9ilPeUrx0EMPFR/60IfKeTAZASOwVQT4RKhPb/p0WG5G1ckCY6I8FunTnHL0Uo512ZIvqrfl0U/J0ibdMac98qObfrVTVqINfdRTop0EDwSO5aZVlWmHopzaqo4Lf6IMTbInnZFXZXRGvWpvyuFHp/RGv5vkDrkPDMA/nZdy4z/FSePXD1fm+sQzVo4/nHYwV9hbK53M5diP/diPnf7/lF/+5V8uXvayl81l2naMgBEYAQEttqjSghsXOMpjk+yglw0wppwtfIBHviBPmaRy1BV10I8sxKMKBQLUadeCTj2SdMc2yrSz6eQ2HPTTn6Ncu3xPgw3apUs80kmdBMVHL1VD+KMxq0ky1KNu6uqLPqqN/jqCB11r3gzrfFc7Y0iDDXDQdRIxQUa40p/2SeeYuXzBR2zL/pg2RtE11pFJk543velN1RHTt3/7t++uuOKKqvxXf/VXTSLuMwJGYAUIlJtE9eitXNCq+7ZcdPZ6GbTPkLBdLtinIpTxo40iDzpIUGyPetO+XJ02ZFI52iG1y2fZjH0VY/lHPKpHv+gjRRK/cvokE9vkg2RjXfxRNi1LLubowEYk2qLu2KdyW7/41p4zdrAjce13vf6Rg3cJHORrOm9rwfqkBGZS+qd/+qfiRS96UfH4xz++eP3rX1984AMfKK666qrixS9+cVF+XbU4OZnchUnHZ+VG4NAQ0Cc6xkUZKheyKpWLaJVXjTP8ST+tYb8LyW9yfG8jvSAIHzI5O+ihTzzSi4/qU5tyeNMxVArKP1FXLEdZ8cYc3phiX1NZfshWypu284lZuKiPvM4/9MuGdEuuTkZ8a8vxO55q4D+p6/Wvcad4zDFOfJT/a8R98h2f4OK///u/izvuuKN44hOfWKXXve51xctf/vLiJS95SVF+ZXWOebANI2AEGhDQIgULZYgFi9R1oa2ERvyDbRGPNkTyj3rdkX2UlVxTjh4R+nObBZuQghHpFy/86JBv2rBzelI7Kb7SLb40p1+JPtlM+dK6fIljjTzRrnjJlWQn8kle/Korh5c+ZOt4xLvGHP/T+Wnzk7HGa6WNf+x+fCbhxxpp0qDjJ37iJ4o///M/L37yJ3+y+K7v+q7T8fM+xzve8Y7i9ttvL575zGcWL3zhC0/7jrHAzdj3hhwic4zYesz1CGhxhEMLlBasvgttvZX9euRXeVRc3SPpfZLWZU1y5IypjeIn+ib+tI+6fBBm2GRjV3tqGxkSfCkP7U2kwAZ/ke9DstUmJz5honrOX+xLn/hSn2iPKe1fY11zNMQ34dE2l0N0d5XhWsQP0pJ+5PydLOj4/d///eIXfuEXim/5lm8pfu7nfu4S27/2a79W/M3f/E31mIXAg397vxZioohUWei6EPyiPnKSqfvkof5czoWk72Xn+tWWXnTU1ba2i1E+O58OAeYe4jpVmeuApE2zYljBHzYq+dbXHeT6EPzYg5RXlVDPrQfCUDLKc7zSpxybzIM2d7U35ZqjvuNDp3yrW2/Un+bIMs46uaibco7QKb25/kNqE05D5mgsHGSb60vlsXTvq2eSoOP9739/9R7HF33RFxW//uu/nvXxcz/3c6u+a6+9tnrMct9992X55mrkptLkUNYnCcptN0uUg38OwmZXW7xBDz8LlhY5+Rx9/eEf/uHipptuKp761KfGZpc3joCuky0EGhHq9L5jMddYIl9TGX5d61z/dQSP+MSDLCn1I/ZTVj85PrJ2UM7plKzkFERIB+05OfTSDuFTSrm2lKetHn1AHzY1DmTxVfXoi8rwICdZ6pGQPQZi/E3X2lwYMC/4sjaaJOjgPY6PfvSjxV133VVcfvnltWPmk/ov/uIvFj/+4z9evPSlLy1uu+22Wt45OuJNoRtJ+Zj20wtBAY5s0I/dnG3JKo8+xwVPutBRvrVcVeHVgqj+mPNi75d+6ZcWP/RDP1T86I/+aMHvqpi2iYCuj60FGk1oc+3m7ok6Ga53bZzwSDbeM3Wy4pdMEx/64It6KTMHwl/3IG2kOn716xQTPkjBSVWp+YNsSmpDPldO+fEbn+HP2Yx+U5Z/0kMdO8geIwnjYxx75zGP/TWa8v0NdrjdK1/5ys6qr7vuukqmfNm0s8xUjOXNsiPlqDwyzTWftiEHTxvfqUBZgDe1RxtJVN7I1Ve2pF/tqZzaczm8bfxXXnllNQ/MH6k8+diV3z7KqXPbChHQdcP1ojkkpx6vpxW63smltY1hbf6kIK7dv9TfQ6iDOfdc21o7x1jxAV/Wdh3wKXg0+sM//MNqkM9+9rN76fzP//zP3WWXXbZ7zGMes7v//vt7yY7NzALNZJFETJo2frXlcnj6EnbSiyLXltMbfcz1qw0+bTzYIuVk06BDGxfBxz//8z9LnfMVIaD5ZH41X+Sa7xW5aleMwMEjwLq6lo1+Tb7EiT9fAjQK/eu//mv1HscXfMEX1L7HUWdI73586lOfqt7vqOObup0jTT1+KBft6rhUx6Tl4t74Ymk8VkOmK8VntV1koh1k2wh++MoLsGBMSsh19fNXf/VXq0ctPAJ74IEH2ky6f2IEmFMS16sSdeaW67S8waucuskIGIH5EPA91471+XaWbhy8x/Hv//7vVcAx5EXEb/3Wb62eJbJB8pPpcxMbsAKOaJv2LpuznoMi21UGPmz2JTYYZNsIPvxiI0pvhi7yqf7f/M3fLEgf+chH0i7XJ0aAuSQpyCCnzrw60JgYfKs3AkZgNAROxtDExvYnf/Inxc0331w85znPGazyp3/6p6vf73jta19b/X7H9ddfP1hXX0FtwizkEIu5ylVDwx9kcy+50S69OXECLDaMHGE/R7Sjs64/lanTn/I11T/ncz6n+lYL32z5wi/8wibW2fo0N11xmM2xkQ0xTu4vjRf1jFknVyObszojYARGQID7dS1r01r8OIU1PmsZUi6DjeoZVrnpDhG/ROaDH/zg7ou/+It35ea2K4/yL+mfuoHnYKJYVlual5v6ro6P9nLCd/CkRF+uHT5k2qhJPpUVL3mk8iKI1V36Tgfv2PBi8H/913+d4Zu7Ak74Di74XJfoh68O17n9HmoP/9OxUt/6uIbiYTkjsCUEWJ+4X5cm1sJ0jV/aJ+yf3XV6evRv//Zvu/KnzXePfexjd+9+97t7Stezv/nNb67A+uZv/uZ6pol6mKiU6hZ7eHP8UZ5+Jj7qoBzr8KveRSf8bXbhEUk3uTYv5NUuPgUdBBuvetWrVhFs5DZf2vA/ppQPzOnfCmlu8FtJc7WVMdhPI2AEHvnQyL27NLGOrMGPFIe9go7v/u7vrhbI3/md30n17l0vf0K90s0n7blJmxkTRqKebtBT+CRbU+jWGJTnbBB0EGyUv7GS656tLd2AwaUr/vAxRm3clElrpHScWiS6jnWNY7JPRuAQEGDN0HqsNaTrfYkc93JX/inwwjY+rHHtGxx0vOUtb9k9+clP3pX/uG0KzCqdfPW2/MVS/1ZEgvAnPvGJHadMf//3f3+aqO9LSwcb+M9NEgOGfcY0pi75wYJCGkosBlqUNE7qSy5QQ8diOSNwqAiwdqT3qe5XcvrgIaX3LnV40vY5scKvpX2oG+/goAOFU29S733ve+v8dvsFBHRx6YagTtoi6SYnH5Okd19chuph8ZGs5on6kovSmPhalxE4ZAS4T1k7lNJ7Wfc0/SLxqD53jk/Rn7ntN9nbK+hoUuy+eRHQDaEbYM0XXQ4Z3aRT3SjoBRPsDCHJd/XPgcYQlC1jBNaPQN29HT2HZ6k1uO9aFf2eo+ygYw6UZ7ahi04BSNeNch83P/3pT+8+/vGP7x5++OHeauTv1H4OtdNVrm4xot1kBIzAdhHgHmYd0Icjra3KcyMT75z3P7aWCnZyGOTaHHTkUDmQtvQmoU7qQ/BzEbfdOPyvHfjK/zDcR33lz5w3iRaCrjho/HX84CKdjINEvQ2vXiCZ2QgYgUUQSO9v7m3d37rv6+512rUezOW81qA6n+byo8mOg44mdA6kjwtQm6cuyrpNNB2ybhzkmmho0DH3TckY2hYLjVOYwR8JTKRDeFKn3WQEjMC2Eehyf2ttaFtHxZeuIVMgpDWpzacpbPfR2byT9NFk3k0goJtAmyX1touUm7AtOBgSdMiXuTfrLuMRD+OGqOumFnYONDZxydtJI9AJgfQer7u/tW61rZsy2pdfcn1yrU1dfeqje2xeBx1jI7oRfVycuhkUUDRdsOKt4+kbdLTpmxpG3aQsNCnRpsAizbUQ5eRSPa4bASOwbgTSQENrYd39rXWLdaAPDZVrsxH9r1ub23TM3e+gY27EV2hPN4Q22LqLt2mjHhp0LAUHN6sWmNQHjVN4ONBIEXLdCGwXAe79uFlrHaCtiejXmtDEV9cX19m6NbZONtc+tr6cjSnaHHRMgepGdXIRxw2XOknUdNP1DTp0o0v3EjljJUWK49cCQ5uwaFuYoi6XjYARWA8C3Lvp/U296z0t2a78uZGzjmhdIafel7AvHX3872tnKn4HHVMhu2G92mB1YcebQxc8F3ukPkGHbrwhN1y0uW+5aRERBuKJWFCmXTz7+mF5I2AEpkGA9Yp7Nd7HlGnvQ9zrcR1skv2f//mf3YMPPtiY+HcTcU25+uqrq39B8Wd/9me7XIIfHslQhq/Nzv/+7/82ubpIn4OORWDfjlHdbLrYqesGpiwaEnRIdqlcAVQcR5Mv8JE0/ohJk5z7jIARmBcBBRu6RxVo9A025DVyXWVf8pKXnAYHsr9U/prXvEZDWE1+UoJhMgK1CNxyyy2FEkyvfvWrT3kplzdzlU4bN1TA9z4EDpHe+ta3VtW+eqIOl42AERgHAe5H1iTdl2jl3iw/KFT5Plb63ONXXXVVUf5YYm9zH/7whyuZ8v9onco+/vGPPy1/yZd8yWm5a+Erv/Iru7LOxuegYzaot2uImzjedDHwuOaaa4ryE0Cvwd1zzz29+KdmHupPxGRqH63fCBiBPAJpsMF9OUagkbfW3vr85z+/IJnyCGw+6Eg3REW53hDyE97WqhtYfMJTdeV1+N5www3Fox/9aLFl83e9611FnXxWwI1GwAgYgYCA1qm4PrGmLBlsBPdcbEBgk0EHF5o2LfJz587xbkoRL8CGMburAYF4PAm2pGc961lVLjHaUnrLW95SNf3jP/5j8ahHPSrtPlP/5Cc/eabuihEwAkagDQHWdxInk+QQa5EDjQqKzfzZZNABuvE9Ay46iAuQi5HcNAyBvo9KUivvfOc7i8suuyxtPlPnkYzJCBgBI9AFAdb09MOQAg2v9V0QXBfPKEFHutFTh8jTl++qjhH+1F1sde0jmLSKERHQNTKiysGqOMkxGQEjsB4EWB9ioIFnrO0KNtbjqT3pi8BoQYdeLtSpA44MfUEvN4gYvKBXG4UuTsnQ5wtTaKwzZ+7WEHREHyiTWNhIJiMwFgJvetObiu/7vu8bS91B6+EejMEG96LX88Oa8lGCjhgQCB4uHgUGalMOf9vCzoWHvHSToxOSLDmJQEN8FYP/rBoB5kwLC+WlSNcT9injE0kk33QdU1ebeJwbgSYEbr311uLmm28u+BrkjTfe2MR6tH269+L9yH22lmAj+hUnqetaIPmu/LIhOdWV99UjubXkowQducHUAQYvoLG4x1ORVEeuT2ATYKiMnDaFVIfr60RAc8c1oPISnuokTgErvsTrln7qaksDknjdIbvkWJbAzzabEXjFK15R/NIv/VJx5ZVXFt/xHd/RzHxkvbqvdI8xfO6ftQQa6XRw7+Oz3nmjrJ8L6HLf9+GNtrGjvRI71EmQ1q2qsqU/+/xMWdMvtJUXT6Uania+IfajTuzI1hBdlhkHgT6/SIrF8gaqfrVvHOvDtJT3aedrh2uO64yE7/IfHWmiT7zxWh3mpaW2hgA/g33ddddV18X3fu/37h566KGtDWEyf7kf4r2je4n2NRP3M/d5JPke2+rKyA4ZIzI5Wa0xdfbW3L73SYe+iRA/9ZUgVZRGYiVQF3r2y1I9qZ39tFt6DgTKm7iK2Jm7Jeavr02uufS6E07x04c+uenTSHo6gozulSad0u18/QjEa4n55xtcH/vYx6oTjqc//enF29/+9tprZ/2j299D7gWdFEgb1z5rAPlWifs43t9zjgPs2HvjtTen/b1srTkiavON6JNkWh6BvicdeFwuOJd8ephrJOVNM/m1w6cUrk8ljRfbaaJPfORDPhXNhZ3t7Kq5aprPdH6pw39M88pYI0ZbHj/3JHMoYmzUaRdpvIwzttMvXvpSHJrkZIc8UtouHdhNbatOLttqizrnKl9EcS6LI9kBtCWBG2kYB6NmSNChG2fuecSeFoGlJoCx4wdJCxE+5RL94kWOZFoGAeYhzlGcF3n0Uz/1UxVPXOApS07t4j+knGszjpUxH8J4Ne/kjCc3JsZKPyQcqkr5RzjEeizXyaEHWfJIaTs8IvrwDxKf+miXLbXNnV/0dG7Le9gDSJJpPQgMCTrwnpsg3qxTj4gbbk57Q8bDtY2fJOGDz7mkRQRe3xND0O4mA7YRf/Buoh/5kR+p+F/0ohedsqEjzmebjlPBlRcYVzo2xknboRBzxfyLdN+pzlhjP+3UhUEs0yf5Njn1Sw+yUGzHN/SJ1Ec953eqS3Jz5RdRnMui7RwkAv/wD/+w+4M/+IPdgw8+2Ht83DDpTdlbSQcB3YDxBu0gthoWFgvGoCTcwC5N9ImPfOmFZjUgDnAE/IQv5a5U/h+iSo6APBJzobnb6rXIeOI4hA/jof3QSNeAxsUYGbNIWKhOTr+wiGX6dH/m5CKG9KeyyEd/cjqib9KHDOWl6SJqS3ti+0eLgG4sbhRujClIN2m8Gaews5ROMGSMSiwujDWX6BMfObKmPALgIwyH4PRt3/Ztuyc84Qm7e++99xID0q1N4RKGFTaAAf7G62tL/g+FVHMleXDguiCnD6IeKdYpi0+8yKpcFS78iXLRTuRBl/TBwxyIJEOdMnzka6GzKK3FK/txdAhwU3CzpTfnGEBw06H3GBbHHF5aeMAhbhbCO+b0w0da00KVG9fUbWCg62aoLU7+7r///lpx2cDOmolrIV47upeO4RphjJqnOF5dG/RB5LkyfbqvpEt8TXLixQ781EnShayIfvHEftqoK4lHckvk5zBaDspkBFaBAF8D4yt25c1R+bPPV8LiV/XKm+70h31WMdAVOAE+JJG+7qt6zMEPOpav+4IL1+Ic1w3XOF+9nMNWNYkd/4DBIX7VtePwT9niPaJG5gqiT+WqofzDfNIW28WnXLwxT+XgzVHUG/sjf+ThOtZ9q3t80W1/iUjHNo1AEwJE4+XNVKUhkbk+DUQdTfbcdykCYAj2SuUidjonwlU5feIjR3Zpwg/8I+9L+K+xzTWWffztO742fsYc55vyXDi0+eb+fghwXaX3QFrvp3F/bp90lKuLaZ0I6BOgvCtvlqpYLoJqOs2J8hXFqxE+ZHL84nHeHwGw1qeqFPNUG9jrU5bmQXnKO2Yd//iEB3ENcC11JZ22lRttMYev8kvXe7msq6lXjjz+DvEZvHyq0QvuzTDr2td1oXyxAewft1iDEZgWASLz8kY5/fRZ3iy1Zfj4VEYyzYuAcGe+2uaMeSKJd4r5QqeuG+x0IWS4vpCbm2S7q6/RP2Twu48s9uAXRho37SYjMBUCPuko7zTTdhDQJ2zl5YJ56nwsnza6sAoEmC/NGQ41nZAwjzodgZc6aSjpBAEd5YbaqGapUw45JV/xs+uYJVMGEAXlNmIe4qkGdsCbnGQyAlMi4KBjSnSt2wgYgVYEYkDSFIygiE1RAYk2SOVNhrQxw9O0oZ87d66y0RacNNnapw8sCHy6BhAaVxt/GmjgI7ghR24yAnMh4KBjLqRtxwgYgV4IsFFCyvsGJOlmqg0anblNGjts+E1BCbJTE4EPVB5vN5qSv0288KSnGg40GmF158QIOOiYGGCrNwJGYHwE2ExJoqaAhOBDpyPwQcimgcfSj1Y0FgVHbUGHgpM0SGJsMdBALxg42BDCzpdE4GRJ47ZtBIyAERiCAJsoKUdsuiRIQQabcEq00R8fpTTpTeWnrjOGujESmEAKJDTmGHwhq/6K2X+MwBoQmOoNVevdDgLlwrSXs+WivdtXR5sD5QLaxtKpH1/70hCZvjbMPz0Cuk7Ldbf6pgc515XmV/XpPWm2gD/4UndP0a5+eBkDdfkfx9Rsyb1GYH4EfNJR3qnHTPrEJAyaPl2JRy+6lYtb1YRMqke8Q3L05Si2qyy7qkc52uQj7eJRm+pNMvTpqBpbyOTkog7KfOLkSF/+pf2uz4cA86U5lFWugXLzPnN9qG/pXNdnzg+uJ53akKu85vHkxuG240XAQcfxzn01chat8tPS6UZKnUU63SxpE7FYx3o80lV7Ko+s2lggm/jSRRc5fNRLfuhKeaJO+iH8Eh/2KKtOfyxTh8T3SO2Rv5GPcqzDgX8k07oQYC51PeMZ89YWaOjdj3WN5BFvNJ7oG/dFej3GfpeNwNoQcNCxthmZ0R82yrgIU6/7dJ4ubLFeV9ZQtCGTEzjAH9uokyLRn7bRz8JLknyUUVlybDgqS051eKMN+tUXeWmDj2TaBgLMFXMvYg7jda72reVxTPKd+wlijAqYKJNMRmCNCJys0Sn7ND0CLMwsTGywKmOVch3FPk4RtJCjA0Ifb9SXTwmrOn/oo50EsTCqTB2dqYzswEc58lMmpY940AXJF5VjPeqpmJM/9MMvPpUZayTZpo2NABzgFX9sl64o7/J0CDAHCjZ1ffaxls51H9mxeBlDjjjVEMEjPnyO9Ric+CREiDlfCwIna3HEfsyHAAsUm6GSNnnlTZ6IRzm86FMdnZFiH+UcadOOstIX8yjPYhrr0qsxUY/lHK9khuTyVRscOijL39g+RL9lhiHAvMSgt48WzWkfmSl5m/yhL9fPda5rXcFIjm9Kv63bCDQh4KCjCZ0D7GNByi1CaRubpzZQwaBFTPUuefzkyEZMgJESPNE+dvEz+kpb5EFHWpde5EQqpzbUH3Pxkqsc++vKfXjrdLh9eQQ4heMaXZr2uZ64J+rui6XHZftGAAQcdBzZdRAXJBY3LXDKBUcMFtQWH42k/OJJcz1nFn+0n/KqLl4CDR5lSAf9erTRpAd5+qO/yDbJqF+y1OUH5SaS3jVsWE1+uq8bAlx3pKVI956uq6X8sF0jMAUCDjqmQHUDOrWhsrBRThe43AbKYii5vkNEX3wmLXkW97rggD6djOBfjld6yDUGfMSeZGNf5I9lxoZ+5bGvrTwUkza97p8XAeY/d93P6QXXEknX8py2bcsIzIHAyRxGbGM9CGiD1KKmehcPY3DQVY6FnBRPK2SLdkh5VbnwRwuv/NSJR443ylFGhuBBG4h0pHyxToAS+bqOT/bIZS/qdXlbCHANMI9drrMpRqbrLgbMU9ixTiOwFAIOOpZCfiG7cWONLmixi21dy3U6JZ9bwLGXa0eGPumkTGIRJpcM/eKRHXL161SFOptIDJiiHDpVp5xSrg2e2F5XTnW5vn4EuE6YT64b0tzEtcr1qGtybvu2ZwSmRsBBx9QIb0R/n0VOm6xklLNI5040chBIJtdHG7rEo8U/1vFBm4N0wCfe2EYZ3rrgQ3olk+bIRqoLYNr0RB0urxMBXT9LnHZwmgf5lGOd14a9GgcB/5fZcXC0FiNgBA4EAQIPnTjoxGzqoS1hc+oxWb8RyCHwqPJivyXX4TYjYASMwDEioBOrO+64oxq+6lNhwUnaC17wgkr9Aw88MJUZ6zUCq0DgZBVe2AkjYASMwIoQ0GcxTjwg1cd2kYBDj1XmOlUZewzWZwT6IHC+D7N5jYARMALHggCBBqccBB4KDMYcO/qlN/321Jh2rMsIrAkBBx1rmg37YgSMwKoQ4PRB35wiQEhfKh7qLAGHTlGwQd1kBI4BAQcdxzDLHqMRMAKdEUgDCwKCGHjsE3ygi39wqBdV+T8xU78z0nngZjQCMyDgb6/MALJNGAEjsA0EFFBw+pAGAwQjBAsKSujX11tT3jha+Ek62aAPOZ9uRJRcPhYEHHQcy0x7nEbACDQioICjLSBQAEEeKQ080n5423RHfS4bgUNEwEHHIc6qx2QEjEAvBLoGHKlSBSBqj4GGghD9mJzq4nVuBI4RAQcdxzjrHrMRMAKnCPCYg0cfPoU4hcQFIzAZAn6RdDJordgIGIG1I+CAY+0zZP8ODQEHHYc2ox6PETACnRBwwNEJJjMZgVERcNAxKpxWZgSMwBYQcMCxhVmyj4eIgN/pOMRZ9ZiMgBGoRUABBy92+qfHa2FyhxGYBAGfdEwCq5UaASOwRgQccKxxVuzTMSHgoOOYZttjNQJHjECXgINfC41fe22CCz50pqSv36btY9XRPwblfB9Dr3UYgSYETpo63WcEjIAROAQEugQc8Oi3NBR41AUWYCJeggA9pkEHX71VXxt26G/ilR/So3rq6z333HNqVzySIddXgmNbk93I57IRGBMBBx1jomldRsAIrA4BNmH9BLmCg5yT8PC/UERs7HUUN3Z+/CvWkaFOIhhIbdLOhk+wgqyI9tSmAgPaSfCgjzJEv3iqhgttlNFPAJSjnK0cn9uMwNgInIyt0PqMgBEwAmtBgM1VjyPSzT/6yCYeN29t6sojL+XIW1eGL5VXHRkFBFE+npogDyEjHoKYSNKnPPZRlhwBlcpgYjICSyHgdzqWQt52jYARmBSBNODQppsa1aZOUMKmr025biNHHj76Y6KdukinK6qnetN+/OPkI+qQjHyPJyPoFa8CK9lSjnwuqd+5EZgbgZO5DdqeETACRmBqBNhotRETTGjTTu3CR5/6FXg0nYpIhzZ8bepqr8sJMlK9sisZ6ugTUZYdchJtnHhQhshVrhrCH+knV5ludJiMwBIInCxh1DaNgBEwAlMioICj7aXOuBHjD3LIpJtyygeveJTT1kTxlAIZPV5JZeIjFIIJ6afMt2vieyeSrQs6JAufysol69wIzImAg4450bYtI2AEJkcgBhx1m3HqBBuxNuM0wEBf2oZ8bJNsqreunjv1gJf2XDCCLcaiXLzp45hojz78Qo4cWUh5VfEfIzAzAg46Zgbc5oyAEZgOAQIENlg2bjbbNoKXxEYMvwKWNjn6kYt5VWn5I59ygQV9BAppUCDfyNWH7aaAAzdkS362uOZuIzALAg46ZoHZRoyAEZgagb4Bh/zR5qx611wBAPxdNnbsyFaUpY26Umo/9tOnwCh9PySVo45f8g05gh3smIzAUgj4f68shbztGgEjMBoCQwOO1AHemUg389yjEOzBFzd1BRTopB3DQc/8AAAUSElEQVSe3PsX0SZ8TUFA7Kesxy+UU4r26VNdueQl13ZSIj7nRmBMBHzSMSaa1mUEjMDsCLCpsqF2faTS5GDXkwA2bIiAAdva2KWb9jR4UV/MmwIO8aEfglf8ymnHdqzTVueT+OgnmYzA3Aj4pGNuxG3PCBiBzgiwofLpvu7EQP1jBBydnTKjETACgxE4P1jSgkbACBiBBRFwwLEg+DZtBAYi4JOOgcBZzAgYgekR4B0LHgmkjyoccEyPvS0YgSkQ8EnHFKhapxEwAnsjoHcO9P6EFCrgIBihbDICRmA7CDjo2M5c2VMjsDkE/u///q/4i7/4i0F+K+iIwjHgSE8/Ip/LRsAIrBMBBx3rnBd7ZQQ2j8C//Mu/FFdffXXxvOc9r3j3u989eDw6zXDAMRhCCxqB1SDgoGM1U2FHjMDhIHDvvfdWv5j59re/vbjpppuKr/iKr+g9OL61wiMUyAFHBYP/GIHNI+AXSTc/hR6AEVgXAnfeeWd1uvHwww8Xb3zjG4sbbrhhkIO8RMpXYSECEKjuq7NVp/8YASOwegROVu+hHTQCRmC1CPDehd694L+jfuhDHyre8573FJ/1WZ9VPPe5zy2e+MQnVv06seg6ED1SQaf0x3c4aFMgQpm+vja6+mI+I2AExkPAJx3jYWlNRuAoEFBAoE2/y6AVEHT9xU89TpFuBRzYVBBCn/SqX/zOjYARWCcCDjrWOS/2ygisDoE02GDD5+us5CTok5/8ZPHsZz+7uO+++4rbb7+9eOpTn3rmRAKeLr8eqv+lAn9K2NJjF9lNeVw3AkZgpQiUz0hNRsAIGIFGBMpNflcuYVWi3EQf/OAHd1/+5V9e8d51112nrOVpxK4MEjrpkS3lyCFvMgJGYNsI+KRjpcGg3TICa0FApw5dTijk87ve9a7iG7/xG4v/+I//qH6n49prr1VX9XhEj0lyOnl8okc39Ps04xQ6F4zA5hFw0LH5KfQAjMA0CLD5E3BAueCgzerb3va26lHLi1/84uJ1r3vdJexDgplLlLjBCBiBTSHwqPI57S2b8tjOGgEjMAsCL3jBCwp+4GtIwIGDl19+eXHFFVcUN954Y9bf7//+76/adarhE40sTG40AgeFgL8ye1DT6cEYgXEQGOsU4ju/8zsbHdJnHgUeqjcKudMIGIHNIuCgY7NTZ8eNwDQIsPHzaGXoCUdfr7DH73E48OiLnPmNwPYQOL89l+2xETACUyGglzh51DHnqYN/Z2OqGbVeI7AuBPxOx7rmw94YgUUR0Hscv/Vbv1U86UlPmt0XnXb4/Y7ZobdBIzALAv72yiww24gRWD8C+rYKG/5SJw/8vxWo/CWC9QNmD42AEeiNgB+v9IbMAkbgsBHgXY6laEnbS43Zdo3AMSHgoOOYZttjNQINCKzp0cac75M0QOIuI2AERkbAj1dGBtTqjMBWEeDRxpKPVoTbWvyQP86NgBEYDwGfdIyHpTUZgc0iwPscEP/AbWki8JE/S/ti+0bACIyLgIOOcfG0NiOwaQTY8JemNQQ+S2Ng+0bgUBFw0HGoM+txGYEeCPhkoQdYZjUCRmAwAg46BkNnQSNgBKZEwIHQlOhatxFYBgEHHcvgbqtGwAi0ILCGRz0tLrrbCBiBngg46OgJmNmNwCEisKYNnv/DYjICRuAwEXDQcZjz6lEZgUEI+JHGINgsZASMQEcEHHR0BMpsRuCQEVjTSQeBz5r8OeR599iMwNwIOOiYG3HbMwIrRYCNXr9KupSLOmnxz6EvNQO2awSmRcBBx7T4WrsR2AwC+n0MbfxLOL500LPEmG3TCBwTAg46jmm2PVYj0ICAHmksGXTo0Yp8aXDXXUbACGwQAQcdG5w0u2wEpkCAjZ7HGpw2LBF46J+8+dHKFLNrnUZgHQj4H76tYx7sRUcE2Ay1IeqrlXosgAptXB3VHT2bsCTQYLMn8OAfrlGeG0v/o7ejvxwNwBEgcHIEY/QQN44AG2PTp29tnAxT7wQssWmuGWZhRK5gTW3yWycM5MJxrsDjmmuuqdyQD/LJuREwAgeGwM5kBFaKwN13370rP3nvyluuSpRpI+WI9nLTOuVHjvqxkTACr4ifcCRXn3hTjCQ3B36aszlspeN03QgYgXkR8OOVcgU2rQ8BPvnqk3i5GfU+6ucTOp/opaPcXItyI13fQPfwSGMjrzu90Jh5BKWy8jbTPO6ApsSOedKjnblOVdrG7X4jYAQmRGDeGMfWjEA7AuWmeHqy0c7dzKFP0eUttBvjkzQ6xtDT7PWlvZxIYBdshA9jikl9dacXl2ptbkGP9E8xZnSiH79NRsAIHAcCxXEM06PcAgJTbXJj6dVmP8UGrPlRwKAAQ5t+zBVcwCN+yY+do3+KcU+hc+yxW58RMALjI+CgY3xMrXEgAlNvRNLPRtqHpth4FSwouJBvMbjQKQB94u/j95i80b99gi5kNcZ99Iw5NusyAkZgPgQcdMyH9cFbeuihh3Y33njj7s477+w9Vm1GU29E2vDYxLsQfJIZ6psCBjbuuHlLL7n6sCH+Lv7NyYNf0X/KtLURYyJpvJRNRsAIHCcCfpG0XAlN4yDwiU98ovi8z/u84oUvfGHx+te/vrPSOV8m5KVLXlItN8zqBckmJ+UXPOXmWsk08Xd5sRN5bEPl5lvlqleVDfxhnLmvMMdxCIs4HI3XL4xGVFw2AseFgIOO45rvSUc7NOjQtyTKuH9S/6RcwURTICEeNlI2y7ihokebqn7PQnXZIJfMkG+ORD1rLjNuYYCf1DVu6vrhNgcaoGEyAkbAPw7ma2BRBLQZ6VPwHM5gk6+YcuKRC3T0dV02T/klGfxjY00J3kMOLtLxqs64SSYjYASMQBcEfNLRBSXzdEJgyEnHUj+5TeBAcJGedijgqBuwNlgFGKrX8bvdCBgBI2AELiLgk46LWLg0MwI65ZjZbGVOwQKPBlTWY57oT3y0Ir7Y77IRMAJGwAh0R+B8d1ZzGoFpEFgq+CCIiI9KeNQSgwxGqxcmHXBMM/fWagSMwHEh4KDjuOZ7VaONpwxLOKb3NWLgQQDEIxcFIPiFn5yC8OhlqQBpCXxs0wgYASMwNgIOOsZG1Pp6IaBvN/QSGolZpxcx6IiqCTAUfBCgwKcAhL46uajDZSNgBIyAEbiIgN/puIiFSzMisKYNW/8srW74Ot0gV5ngA1LgUifrdiNgBIyAEbiIgIOOi1i4NBICH/7wh1tPAf7u7/5uJGvzqlHQoXxe67ZmBIyAEdg2Ag46tj1/q/T+j//4jwtSF1r6pGBp+10wGsrDaVI6PoIl2tJ22Wg7gaqTk/zQPOfrUF2WMwJGYL0IOOhY79xs1rOv//qvL57//Oc3+v+e97ynuPXWWxt55ug81M1OJzF9gwQeG6Uv2EoHfSqPPTfpPKR17NFWR/J7Kv/q7LrdCBiBfgg46OiHl7k7IPC0pz2t+v8rTaxsIGsIOpp83GofAYeCDuUai95fAX/KvMib8oi3bx71sPljg5wUKfKpHV9y7VE2liWnvKlPPM6NgBFYHgEHHcvPwVF7oI1pSRCW/AbNFONmAwZXUdzMKdNPGoukn1x2ZYM67SQRZfGpjaBDPqlPdfF0yZEdItdFt3mMgBHYH4GT/VVYgxHoj4A2Bn3y7q9hfwltbvtrWpcGYdvm1RgbtDBUUKHHHLKNL/DQLx71xTwGfqn/shH5KdOe8mIfSturRv8xAkZgcQQcdCw+BcfrABtD3YYyByqyfWgbFOMiaVxs9pRpg8hJCvjER5/e56CcUgwM1Mcmz4+pRYr6Yjtl7OYonnTQD1/uf+NEWWyngUyT7SjrshEwAssg4KBjGdxttURAP7jFBrPEZpHbdA9lYsAzBgTU2zCuCwiECfJs8uCmQCMGIsjnghbkpDv1gXaS5CJv3X8AhjfqqdMtv50bASOwHgQcdKxnLo7WEzbHuInMAUS62c1hcykbYKvxRh9oj7jHMvwxKFOf8qhHZWTSkwf6mF8FFeIlh5/TDAUXyKK/Tg/tBDmpD6qjKw1Ioj2XjYARWB6B88u7YA+OFQE2CxKbCWlOkr3cJjmnH1PYSvFkMxYx3ri5qz3m9KODDZyU6ou8Kkun6sppzwUKtEPMv4gy7epTO7l8yPWJDzsEOCYjYATWi8D59bpmz44BAX0CnnOzYOOq+/R9KJjHzTk+Amkbn+SUw0+ZTZ/ghTwSfSQoBhDU1a6cNhFtKX/sUznmOT1pv66n2O6yETAC60HgZD2u2JNjRICNh8RmRqI8NemxQdsmNrUfc+lnnGALpXnVmPzJ4SIdBGskvdOBaI4fO7l2mYp+wKd5p0wf/9WXAEI61I98lJU+5ZFPbc6NgBFYDwIOOtYzF5v35Pz588UznvGM4vLLL+81FjYw/et4ylNuHNrUDvkTsTbq3AlHHbbIKNVNHrJ18qlMGx+BAzx6nyPKq13BReyjTD90yHNYDdB/jMABInCuvOl3BzguD2ljCLDBcHzPhhI/RY85DDZVPVahbDICRsAIGIF5ETg/rzlbMwJ5BAg2+OSq4CPPNbxVAQd2HHAMx9GSRsAIGIF9EHDQsQ96lh0VAYIBBR48bhkrOEAPJxxTnqKMCoSVGQEjYAQOFIFHlQvyLQc6Ng9rgwgQGEC87KkXPtVWdfT4w6nJk5/85EoPwcwb3vCGHtJmNQJGwAgYgbER8DsdYyNqfaMhoBMKFOqlwbYYmUAD4mSDMgELskMDl0qZ/xgBI2AEjMAoCDjoGAVGK5kKAQUZBBEiBRD6doZOROhX0EGZYEPy1E1GwAgYASOwLAIOOpbF39Z7IEAAQYARA4sormDEJxsRFZeNgBEwAutBwEHHeubCnhgBI2AEjIAROGgE/O2Vg55eD84IGAEjYASMwHoQcNCxnrmwJ0bACBgBI2AEDhoBBx0HPb0enBEwAkbACBiB9SDgoGM9c2FPjIARMAJGwAgcNAIOOg56ej04I2AEjIARMALrQcBBx3rmwp4YASNgBIyAEThoBBx0HPT0enBGwAgYASNgBNaDgIOO9cxFoyd1P4jVKJR0Tv3rnGPpz401pxu+XHsy7Gw1ZyPH2JUvJ7tE29b8XQIj2zQCRmA5BE6WM23LXRHQxqpf3Owihwz8kpGOLrJdeOo2t9hOmV8Q1S+Exj7Z4OfN6Y8kPvmueuTpUhYG8KJDvqgu/XW6cnZpS+Voy/GiV+OL+Od4acvppY1EP6mNcvbaZNxvBIyAEZgLAf8i6VxI72HnmmuuObMx6/+Q3H333We0ppsSdTasHNEXN0Lx5NrQUadHcviIP8i38Uc/tUmiR/5GW7SR0Kuy+qlD1FWGT0RZdcmqHvvELx2qk9Mme6pLR+Tbtyz8+ugZItNHv3mNgBEwAmMjcDK2QusbFwE2OP6xmTY+NkHquY1PPPIgraudPO2TPnJsEAwoqFGbeKSHOqcH4lM7OTpSG+qPgYbalNPXJJfakp06Gfoh8qb/2wJPqiPVTT3FALkuJF3wUo51yaudOnaU1J/m+od3abvrRsAIGIG1InCyVsfs1yObEziwGWoDYmOiXEd8+o2bEbIk5CDKdZ+QpTcNCmRbeaXowh8FAdGm7Eif8ignf2iL5Zwe8chW1NNWZryRVI82Y39sj2Xx0NZFh3gkB6ZQ2o4+8InBVs4usvBJXn6QqwwPeobghKzJCBgBIzA1Ag46pkZ4oH5tJmw0onPnzhW73U7VbM6mLRnpYKOirPZUMBeEaHNLeWNd+shJ2OA0QbJqjzKUo4/Yhg9CnpRSbKMs/eKjTYFSrg8+eOJJRx2fdNbl6CHhc6pDMviiMamtjlf9XXL8l95oIy130WUeI2AEjMASCJwsYdQ2uyGgDQZuNrr0Eyxt6WYWN6ZuVh4JAsSLzvTFTvqww+aWknwgeEBOL42KL45BbdFH5HM84qVfpLEqp11l5eKVX6qTp6co2MUXcE3l5RPt6mvyVeMXL/bke2yjPRL2xUeucuSpK/fhrdPhdiNgBIzAnAg46JgT7R624kalzZG2uNEQBEQ+1MdTBHgjfxfz8GvDjfzYSoMReLEPf9zQ2YCjH1EP5abApMlf2UOHNnnKEH3yO6cjbu7CjFzlR7Q88hc9CkakO+apDPYYb9pOnT58TQNG2ZNcnMuc/+KPuezlgsHI57IRMAJGYC0IOOhYy0xk/GDzIbEJsnFpkxFrbrOJm6v4uubYSm0gS7s2x6gLXnyDKJPEq/aqM/kDH6TgpKpc+KO+tA299KGXlPpDvyjVAT+BDjKilEftsgOOkWhHT0q01/XBix315+Sxo3blqY26OnpNRsAIGIEtIXCyJWePxVdtJmxYpD4UN2PpaZNns4OXlG58qiuPutRWl0fepjJ268bZ1Nekkz5kSfhHDlEm6eQm2lUffDGggwd5UuSHD0KuiehHNiXpUq7+HK/6Yi656Gvsd9kIGAEjsDYETtbmkP155NNxDod0M0rrqUzsb9sY2cC0iUkPMnVytEsGOyTq5JJRv/Qpl6weOVBn44wBE7KQdKAXku62Ex3xKa+EL/yhDX3YJEU/ZEe25AcykiOH4FW/6lG+YrrwJ/KpXbzK1U5OW3raonbxRblYVr9zI2AEjMDaEDhZm0P2J49A3JDFkb5jQXu6uWmDlAz1+JhB7bk8lY082GGjI1EWr+xTpy9u6tRJ8IgPnZJVP23qV05bpPS9kNiHHumM7bGM3pxu/EW3ApEog86YUvm0HmXTMrx9+JGP10CUjWXGbjICRsAIrBUB/yLpWmfGfhkBI2AEjIARODAEzh/YeDwcI2AEjIARMAJGYKUIOOhY6cTYLSNgBIyAETACh4aAg45Dm1GPxwgYASNgBIzAShFw0LHSibFbRsAIGAEjYAQODQEHHYc2ox6PETACRsAIGIGVIuCgY6UTY7eMgBEwAkbACBwaAg46Dm1GPR4jYASMgBEwAitF4P8BEq6TLzqyClIAAAAASUVORK5CYII=;" vertex="1" parent="1">
                    <mxGeometry x="40" y="70" width="715.52" height="410" as="geometry"/>
                </mxCell>
            </root>
        </mxGraphModel>
    </diagram>
</mxfile>